<?xml version="1.0" encoding="iso-8859-1"?>
<!-- Generator: Adobe Illustrator 16.0.0, SVG Export Plug-In . SVG Version: 6.00 Build 0)  -->
<!DOCTYPE svg PUBLIC "-//W3C//DTD SVG 1.1//EN" "http://www.w3.org/Graphics/SVG/1.1/DTD/svg11.dtd">
<svg version="1.1" id="Capa_1" xmlns="http://www.w3.org/2000/svg" xmlns:xlink="http://www.w3.org/1999/xlink" x="0px" y="0px"
	 width="412.363px" height="412.364px" viewBox="0 0 412.363 412.364" style="enable-background:new 0 0 412.363 412.364;"
	 xml:space="preserve">
<g>
	<g>
		<g>
			<path d="M351.182,45.188h-86.363l-7.104-36.795c-1.047-5.422-6.289-8.967-11.715-7.923L226.362,4.26
				c-2.604,0.503-4.901,2.021-6.389,4.216c-1.486,2.197-2.039,4.894-1.535,7.498l5.642,29.213H197.9l6.288-28.785
				c0.566-2.591,0.08-5.301-1.353-7.534c-1.432-2.232-3.692-3.804-6.283-4.37L177.014,0.23c-2.589-0.566-5.3-0.079-7.533,1.353
				c-2.232,1.432-3.805,3.692-4.37,6.283l-8.151,37.321H61.182c-5.521,0-10,4.477-10,10V280.04c0,5.523,4.479,10,10,10h42.295
				L79.411,400.23c-0.647,2.956,0.081,6.047,1.979,8.404c1.898,2.356,4.761,3.729,7.789,3.729h20.471c4.7,0,8.767-3.273,9.769-7.865
				l8.768-40.135h157.515l7.702,39.896c0.908,4.705,5.026,8.104,9.818,8.104h20.37c0,0,0.013,0,0.021,0c5.521,0,10-4.478,10-10
				c0-0.879-0.112-1.73-0.325-2.544l-21.195-109.78h39.09c5.522,0,10-4.477,10-10V55.188
				C361.182,49.665,356.704,45.188,351.182,45.188z M277.978,324.364H136.922l7.498-34.324h126.932L277.978,324.364z M81.182,260.04
				V75.188h250V260.04H81.182z"/>
			<path d="M276.294,155.353c-0.34-1.864-1.422-3.511-2.997-4.564c-1.576-1.052-3.51-1.422-5.364-1.022
				c-4.081,0.88-10.408,2.354-18.038,4.5l-3.01-9.327c6.049-1.742,12.124-2.981,18.084-3.688c3.717-0.44,6.43-3.726,6.159-7.459
				l-0.663-9.112c-0.141-1.902-1.047-3.665-2.516-4.881c-1.469-1.216-3.368-1.783-5.263-1.565
				c-10.484,1.199-21.109,3.714-31.606,7.482l-3.653-9.133c-0.696-1.74-2.061-3.128-3.787-3.854
				c-1.729-0.726-3.676-0.729-5.405-0.008c-2.621,1.092-5.257,2.238-7.877,3.401l-0.545-2.487c-0.4-1.828-1.518-3.419-3.098-4.419
				c-1.584-1.001-3.501-1.326-5.321-0.902c-14.401,3.338-34.17,8.71-59.415,20.724c-1.693,0.806-2.994,2.257-3.606,4.03
				c-0.614,1.772-0.491,3.716,0.341,5.397l4.051,8.181c1.219,2.463,3.698,3.896,6.278,3.896c1.006,0,2.026-0.218,2.995-0.677
				c1.346-0.639,2.697-1.258,4.049-1.874c-6.104,4.846-11.736,9.912-16.811,15.167c-0.604,0.625-1.199,1.245-1.787,1.858
				c-2.662,2.785-2.574,7.198,0.197,9.874l6.604,6.374c1.35,1.303,3.133,2.002,5.041,1.961c1.875-0.048,3.652-0.847,4.934-2.217
				c0.551-0.589,1.117-1.202,1.697-1.836c2.193-2.269,4.514-4.504,6.954-6.702c-0.008,0.155-0.01,0.312-0.005,0.468
				c0.038,1.925,0.868,3.749,2.295,5.042l3.992,3.621c-9.243,7.694-17.637,15.977-24.972,24.645
				c-1.222,1.444-1.808,3.321-1.624,5.204c0.186,1.882,1.123,3.609,2.602,4.79l7.138,5.694c1.288,1.028,2.83,1.528,4.362,1.528
				c1.985,0,3.957-0.842,5.338-2.468c6.09-7.167,13.061-14.071,20.739-20.546l2.88,3.167c2.485,2.733,6.666,3.065,9.552,0.758
				c0.484-0.387,0.979-0.774,1.484-1.159c-0.556,1.277-0.723,2.704-0.459,4.095c0.359,1.898,1.488,3.563,3.119,4.604l7.716,4.911
				c3.099,1.973,7.196,1.214,9.384-1.737c12.36-16.686,31.336-25.583,38.918-28.634c3.366-1.354,5.142-5.058,4.086-8.53
				l-0.638-2.092c5.77-1.565,10.585-2.691,13.731-3.382c3.681-0.809,6.06-4.387,5.384-8.094L276.294,155.353z"/>
		</g>
	</g>
</g>
<g>
</g>
<g>
</g>
<g>
</g>
<g>
</g>
<g>
</g>
<g>
</g>
<g>
</g>
<g>
</g>
<g>
</g>
<g>
</g>
<g>
</g>
<g>
</g>
<g>
</g>
<g>
</g>
<g>
</g>
</svg>
