<?xml version="1.0" encoding="iso-8859-1"?>
<!-- Generator: Adobe Illustrator 16.0.0, SVG Export Plug-In . SVG Version: 6.00 Build 0)  -->
<!DOCTYPE svg PUBLIC "-//W3C//DTD SVG 1.1//EN" "http://www.w3.org/Graphics/SVG/1.1/DTD/svg11.dtd">
<svg version="1.1" id="Capa_1" xmlns="http://www.w3.org/2000/svg" xmlns:xlink="http://www.w3.org/1999/xlink" x="0px" y="0px"
	 width="289.692px" height="289.692px" viewBox="0 0 289.692 289.692" style="enable-background:new 0 0 289.692 289.692;"
	 xml:space="preserve">
<g>
	<g>
		<path d="M284.437,186.899c-35.584,0-64.539-22.138-64.539-49.354c0-2.902-2.354-5.256-5.256-5.256
			c-2.902,0-5.257,2.354-5.257,5.256c0,27.217-28.955,49.354-64.538,49.354c-35.585,0-64.539-22.138-64.539-49.354
			c0-2.902-2.351-5.256-5.257-5.256c-2.905,0-5.256,2.354-5.256,5.256c0,27.217-28.953,49.354-64.539,49.354
			c-2.905,0-5.256,2.354-5.256,5.256c0,2.902,2.351,5.257,5.256,5.257c27.459,0,51.454-11.861,64.539-29.465v95.752H57.53
			c-2.906,0-5.257,2.354-5.257,5.257c0,2.901,2.351,5.256,5.257,5.256h35.042c2.906,0,5.256-2.354,5.256-5.256
			c0-2.902-2.351-5.257-5.256-5.257H80.308v-95.752c13.081,17.604,37.079,29.465,64.539,29.465
			c27.459,0,51.455-11.861,64.538-29.465v95.752H197.12c-2.902,0-5.257,2.354-5.257,5.257c0,2.901,2.354,5.256,5.257,5.256h35.043
			c2.901,0,5.256-2.354,5.256-5.256c0-2.902-2.354-5.257-5.256-5.257h-12.266v-95.752c13.083,17.604,37.079,29.465,64.539,29.465
			c2.902,0,5.256-2.354,5.256-5.257C289.692,189.254,287.342,186.899,284.437,186.899z"/>
		<path d="M106.299,126.447h77.094c2.902,0,5.257-2.351,5.257-5.256V20.736c0-2.905-2.354-5.256-5.257-5.256h-77.094
			c-2.906,0-5.256,2.351-5.256,5.256v100.458C101.043,124.096,103.397,126.447,106.299,126.447z M111.556,25.993h66.582v89.945
			h-66.582V25.993z"/>
	</g>
</g>
<g>
</g>
<g>
</g>
<g>
</g>
<g>
</g>
<g>
</g>
<g>
</g>
<g>
</g>
<g>
</g>
<g>
</g>
<g>
</g>
<g>
</g>
<g>
</g>
<g>
</g>
<g>
</g>
<g>
</g>
</svg>
